<svg width="20" height="21" viewBox="0 0 20 21" fill="none" xmlns="http://www.w3.org/2000/svg">
<path d="M19.1 10.5C19.1 12.9135 18.1412 15.2281 16.4347 16.9347C14.7281 18.6413 12.4135 19.6 9.99999 19.6C7.58652 19.6 5.2719 18.6413 3.56532 16.9347C1.85874 15.2281 0.899994 12.9135 0.899994 10.5C0.899994 8.08655 1.85874 5.77193 3.56532 4.06535C5.2719 2.35877 7.58652 1.40002 9.99999 1.40002C12.4135 1.40002 14.7281 2.35877 16.4347 4.06535C18.1412 5.77193 19.1 8.08655 19.1 10.5ZM11.2021 16.5021C11.5209 16.1833 11.7 15.7509 11.7 15.3C11.7 14.8492 11.5209 14.4168 11.2021 14.0979C10.8833 13.7791 10.4509 13.6 9.99999 13.6C9.54913 13.6 9.11672 13.7791 8.79791 14.0979C8.4791 14.4168 8.29999 14.8492 8.29999 15.3C8.29999 15.7509 8.4791 16.1833 8.79791 16.5021C9.11672 16.8209 9.54913 17 9.99999 17C10.4509 17 10.8833 16.8209 11.2021 16.5021ZM9.99999 4.00002C9.54913 4.00002 9.11672 4.17913 8.79791 4.49794C8.4791 4.81676 8.29999 5.24916 8.29999 5.70002V10.5C8.29999 10.9509 8.4791 11.3833 8.79791 11.7021C9.11672 12.0209 9.54913 12.2 9.99999 12.2C10.4509 12.2 10.8833 12.0209 11.2021 11.7021C11.5209 11.3833 11.7 10.9509 11.7 10.5V5.70002C11.7 5.24916 11.5209 4.81676 11.2021 4.49794C10.8833 4.17913 10.4509 4.00002 9.99999 4.00002Z" fill="#E02424" stroke="#E02424"/>
</svg>
